<?xml version="1.0" encoding="UTF-8"?>
<!DOCTYPE svg PUBLIC "-//W3C//DTD SVG 1.1//EN" "http://www.w3.org/Graphics/SVG/1.1/DTD/svg11.dtd">
<!-- Creator: CorelDRAW 2018 (64-Bit) -->
<svg xmlns="http://www.w3.org/2000/svg" xml:space="preserve" width="1.09546in" height="0.810024in" version="1.1" style="shape-rendering:geometricPrecision; text-rendering:geometricPrecision; image-rendering:optimizeQuality; fill-rule:evenodd; clip-rule:evenodd"
viewBox="0 0 459.54 339.8"
 xmlns:xlink="http://www.w3.org/1999/xlink">
 <defs>
  <style type="text/css">
   <![CDATA[
    .fil2 {fill:#55007C;fill-rule:nonzero}
    .fil1 {fill:#73169E;fill-rule:nonzero}
    .fil3 {fill:#8612AD;fill-rule:nonzero}
    .fil0 {fill:#8612AD;fill-rule:nonzero}
    .fil4 {fill:white;fill-rule:nonzero}
    .fil5 {fill:#8612AD;fill-rule:nonzero;fill-opacity:0.501961}
   ]]>
  </style>
 </defs>
 <g id="OBJECTS">
  <metadata id="CorelCorpID_0Corel-Layer"/>
  <g id="_2407273983440">
   <path class="fil0" d="M117.41 287.68l-7.67 0c-2.32,-5.42 -4.7,-8.7 -7.14,-9.87 -3.12,-1.16 -7.08,-1.73 -11.84,-1.73 -7.79,0.45 -11.99,2.38 -12.56,5.8 0,3.42 7.5,6.46 22.49,9.1 14.88,3.04 22.52,7.55 23,13.54 0,10.45 -11.45,15.68 -34.33,15.68 -13.47,0 -23.02,-1.55 -28.59,-4.66l0 -11.99 8 0c2.2,4.71 4.25,7.93 6.1,9.67 1.63,1.55 6.22,2.58 13.77,3.09 11.99,-0.25 18.09,-3.09 18.29,-8.5 0,-2.53 -1.96,-4.69 -5.92,-6.49 -3.96,-1.86 -9.88,-3.32 -17.76,-4.36 -15.47,-2.18 -23.44,-5.83 -23.89,-10.93 0,-4.06 2.95,-7.35 8.9,-9.86 5.8,-2.53 13.71,-3.78 23.71,-3.78 11.04,0 19.51,1.68 25.43,5.04l0 10.25z"/>
   <path id="1" class="fil0" d="M165.45 306.61c2.32,5.7 8.45,8.65 18.33,8.92 14.66,-0.13 22.01,-6.62 22.01,-19.47 -0.36,-12.78 -7.85,-19.17 -22.52,-19.17 -8.39,0 -14.34,2.36 -17.82,7.07l0 22.65zm0 24.52c0,3.53 3.78,5.37 11.33,5.5l0 3.17 -39.65 0 0 -3.17c6.87,-0.13 10.29,-1.97 10.29,-5.51l0 -49.1c-0.48,-2.96 -4.94,-4.54 -13.41,-4.74l0 -3.77c5.68,0 11.04,-0.1 16.03,-0.3 4.79,-0.18 9.94,-0.48 15.41,-0.87l-0.06 4.56c5.36,-2.97 12.85,-4.46 22.52,-4.46 23.83,0 35.97,7.86 36.44,23.58 0,15.98 -13,24.04 -39.03,24.17 -7.56,0 -14.19,-0.89 -19.87,-2.66l0 13.61z"/>
   <path id="2" class="fil0" d="M265.16 306.61c2.32,5.7 8.45,8.65 18.33,8.92 14.66,-0.13 22.01,-6.62 22.01,-19.47 -0.36,-12.78 -7.85,-19.17 -22.52,-19.17 -8.39,0 -14.34,2.36 -17.82,7.07l0 22.65zm0 24.52c0,3.53 3.78,5.37 11.33,5.5l0 3.17 -39.65 0 0 -3.17c6.87,-0.13 10.29,-1.97 10.29,-5.51l0 -49.1c-0.48,-2.96 -4.94,-4.54 -13.41,-4.74l0 -3.77c5.68,0 11.04,-0.1 16.03,-0.3 4.79,-0.18 9.94,-0.48 15.41,-0.87l-0.06 4.56c5.36,-2.97 12.85,-4.46 22.52,-4.46 23.83,0 35.96,7.86 36.44,23.58 0,15.98 -13,24.04 -39.03,24.17 -7.55,0 -14.19,-0.89 -19.87,-2.66l0 13.61z"/>
   <path id="3" class="fil0" d="M395.6 287.68l-7.67 0c-2.32,-5.42 -4.7,-8.7 -7.14,-9.87 -3.12,-1.16 -7.08,-1.73 -11.84,-1.73 -7.79,0.45 -11.99,2.38 -12.55,5.8 0,3.42 7.5,6.46 22.49,9.1 14.87,3.04 22.52,7.55 22.99,13.54 0,10.45 -11.45,15.68 -34.33,15.68 -13.47,0 -23.02,-1.55 -28.58,-4.66l0 -11.99 8 0c2.2,4.71 4.26,7.93 6.1,9.67 1.63,1.55 6.21,2.58 13.77,3.09 11.99,-0.25 18.08,-3.09 18.29,-8.5 0,-2.53 -1.96,-4.69 -5.92,-6.49 -3.96,-1.86 -9.88,-3.32 -17.76,-4.36 -15.47,-2.18 -23.44,-5.83 -23.89,-10.93 0,-4.06 2.94,-7.35 8.89,-9.86 5.8,-2.53 13.71,-3.78 23.71,-3.78 11.04,0 19.51,1.68 25.43,5.04l0 10.25z"/>
   <polygon class="fil1" points="243.47,0 332.41,0 459.54,121.31 332.41,242.62 243.47,242.62 370.6,121.31 "/>
   <polygon class="fil2" points="216.07,0 127.13,0 -0,121.31 127.13,242.62 216.07,242.62 88.94,121.31 "/>
   <polygon class="fil3" points="127.13,0 216.07,0 45.18,164.42 -0,121.31 "/>
   <polygon class="fil0" points="243.47,242.62 414.48,78.31 459.54,121.31 332.41,242.62 "/>
   <polygon class="fil4" points="332.44,0 216.75,242.62 127.87,242.62 243.56,0 "/>
   <polygon class="fil5" points="332.44,0 216.75,242.62 127.87,242.62 243.56,0 "/>
  </g>
 </g>
</svg>
